<svg id="add_3_"  xmlns="http://www.w3.org/2000/svg" width="20.24" height="20.24" viewBox="0 0 34.24 34.24">
  <g id="Group_1131"  transform="translate(0 0)">
    <g id="Group_1130" >
      <path id="Path_3174"  d="M3.424,85.333H0V109.3a3.423,3.423,0,0,0,3.424,3.424H27.392V109.3H3.424Z" transform="translate(0 -78.485)" fill="#006ab1"/>
      <path id="Path_3175"  d="M109.3,0H88.757a3.423,3.423,0,0,0-3.424,3.424V23.968a3.423,3.423,0,0,0,3.424,3.424H109.3a3.423,3.423,0,0,0,3.424-3.424V3.424A3.423,3.423,0,0,0,109.3,0Zm-1.712,15.408h-6.848v6.848H97.317V15.408H90.469V11.984h6.848V5.136h3.424v6.848h6.848Z" transform="translate(-78.485)" fill="#006ab1"/>
    </g>
  </g>
</svg>
