<svg xmlns="http://www.w3.org/2000/svg" width="40" height="40" viewBox="0 0 40 40">
  <g id="addPlace" transform="translate(-1219 -833)">
    <g id="Ellipse_375" data-name="Ellipse 375" transform="translate(1219 833)" fill="#e3f1fa" stroke="#1d72aa" stroke-width="2">
      <circle cx="20" cy="20" r="20" stroke="none"/>
      <circle cx="20" cy="20" r="19" fill="none"/>
    </g>
    <path id="add_5_" data-name="add(5)" d="M13.38,6.034H8.92a.262.262,0,0,1-.262-.262V1.312a1.312,1.312,0,1,0-2.624,0v4.46a.262.262,0,0,1-.262.262H1.312a1.312,1.312,0,1,0,0,2.624h4.46a.262.262,0,0,1,.262.262v4.46a1.312,1.312,0,1,0,2.624,0V8.92a.262.262,0,0,1,.262-.262h4.46a1.312,1.312,0,1,0,0-2.624Zm0,0" transform="translate(1231.597 846.419)" fill="#1d72aa"/>
  </g>
</svg>
