<svg xmlns="http://www.w3.org/2000/svg" width="89.894" height="89.893" viewBox="0 0 89.894 89.893">
  <g id="ball" transform="translate(-23.071 -23.08)">
    <g id="Group_8" data-name="Group 8" transform="translate(24.439 24.238)">
      <path id="Path_4514" data-name="Path 4514" d="M430.125,142.039l-.044,0-12.321-7.159,3.736-14.669.124-.095A43.572,43.572,0,0,1,430.125,142.039Z" transform="translate(-342.965 -102.552)" fill="#b0b5ca"/>
      <path id="Path_4515" data-name="Path 4515" d="M218.587,30.678l-.029.1-11.731,8.537-.073-.054L195.1,30.774l-.027-.1a44.066,44.066,0,0,1,23.517,0Z" transform="translate(-163.248 -29.08)" fill="#b0b5ca"/>
      <path id="Path_4516" data-name="Path 4516" d="M38.791,120.215l3.736,14.669-12.321,7.159-.046,0a43.572,43.572,0,0,1,8.506-21.919Z" transform="translate(-30.16 -102.552)" fill="#b0b5ca"/>
      <path id="Path_4517" data-name="Path 4517" d="M85.168,387.48l3.651,14.056-.012.027A43.949,43.949,0,0,1,70.61,386.7l.066-.044Z" transform="translate(-62.804 -317.658)" fill="#b0b5ca"/>
      <path id="Path_4518" data-name="Path 4518" d="M365.473,386.66l.025.017a43.932,43.932,0,0,1-18.166,14.864l0-.006,3.649-14.056Z" transform="translate(-286.126 -317.658)" fill="#b0b5ca"/>
    </g>
    <path id="Path_4519" data-name="Path 4519" d="M188.54,346.281l-3.649,14.056,0,.006a43.9,43.9,0,0,1-35.2.021l.012-.027-3.651-14.056,11.582-10.605,0,.01H176.9l.023-.075Z" transform="translate(-99.248 -252.221)" fill="#e5e5e5"/>
    <path id="Path_4520" data-name="Path 4520" d="M339.956,203.785q.206,2.122.208,4.3a43.574,43.574,0,0,1-8,25.231l-.025-.017-14.494.82L306.03,223.449l5.93-18.527-.087-.066.029-.039,15.688-8.188,12.321,7.159Z" transform="translate(-228.357 -140.06)" fill="#f4f8fc"/>
    <path id="Path_4521" data-name="Path 4521" d="M57.284,204.827l5.949,18.687L51.651,234.12l-14.492-.82-.066.044a43.589,43.589,0,0,1-8.014-25.258q0-2.177.208-4.3l.046,0,12.321-7.159,15.629,8.149.023.031Z" transform="translate(-4.849 -140.06)" fill="#e2e4ed"/>
    <path id="Path_4522" data-name="Path 4522" d="M181.189,209.658l-5.949-18.687.023-.017,15.561-11.493,15.5,11.54.087.066-5.93,18.527-.023.075H181.193Z" transform="translate(-122.805 -126.204)" fill="#b0b5ca"/>
    <path id="Path_4523" data-name="Path 4523" d="M290.646,53.33l-.124.095-3.736,14.669L271.1,76.282l-.029.039-15.5-11.54v-.023l-.1-18.772.029-.041.073.054L267.3,37.462l.029-.1a43.839,43.839,0,0,1,23.314,15.97Z" transform="translate(-187.553 -11.524)" fill="#e2e4ed"/>
    <path id="Path_4524" data-name="Path 4524" d="M109.314,64.758v.023L93.753,76.274l-.023-.031L78.1,68.094,74.365,53.425l-.125-.095A43.844,43.844,0,0,1,97.556,37.36l.027.1,11.657,8.489-.029.041Z" transform="translate(-41.295 -11.524)" fill="#f4f8fc"/>
    <path id="Path_4525" data-name="Path 4525" d="M196.811,32.021a43.56,43.56,0,0,1,12.932-2.846q-1.446-.095-2.916-.1a43.762,43.762,0,0,0-11.758,1.6l.027.1Z" transform="translate(-138.809 -4.841)" fill="#969db2"/>
    <path id="Path_4526" data-name="Path 4526" d="M36.459,138.41a43.47,43.47,0,0,1,3.965-11.786l-1.632-6.408-.125-.095a43.572,43.572,0,0,0-8.506,21.919l.046,0Z" transform="translate(-5.721 -78.314)" fill="#969db2"/>
    <path id="Path_4527" data-name="Path 4527" d="M87.867,397.872A44.035,44.035,0,0,1,76.611,387l-5.935-.336-.066.044a43.949,43.949,0,0,0,18.2,14.859l.012-.027Z" transform="translate(-38.365 -293.42)" fill="#969db2"/>
    <path id="Path_4528" data-name="Path 4528" d="M160.99,448.427l-.012.027a43.617,43.617,0,0,0,17.577,3.672c.972,0,1.936-.035,2.892-.1a43.54,43.54,0,0,1-21.41-7.265Z" transform="translate(-110.537 -340.311)" fill="#d3d6e2"/>
    <path id="Path_4529" data-name="Path 4529" d="M43.094,248.38a43.587,43.587,0,0,1-8.225-25.549,44.032,44.032,0,0,1,.718-7.931l-6.252,3.634-.046,0q-.2,2.122-.208,4.3a43.589,43.589,0,0,0,8.014,25.258l.066-.044Z" transform="translate(-4.849 -154.805)" fill="#d3d6e2"/>
    <path id="Path_4530" data-name="Path 4530" d="M76,59.833A43.943,43.943,0,0,1,99.3,38.7l-1.714-1.248-.027-.1A43.844,43.844,0,0,0,74.24,53.33l.125.095Z" transform="translate(-41.295 -11.524)" fill="#d3d6e2"/>
    <path id="Path_4531" data-name="Path 4531" d="M68.019,23.08A44.946,44.946,0,1,0,99.8,36.244,44.946,44.946,0,0,0,68.019,23.08Zm0,2.316a43,43,0,0,1,9.159.983l-9.159,6.665-9.153-6.666A43,43,0,0,1,68.019,25.4ZM82.248,65.3l-5.443,17.01H59.234l-5.444-17.1L68.016,54.7ZM32.507,44.419l.579,2.281a1.158,1.158,0,0,0,1.122.872h0a1.158,1.158,0,0,0,1.122-1.442l-1.056-4.164a43.268,43.268,0,0,1,3.6-4.084,42.4,42.4,0,0,1,18.08-10.761l10.806,7.871.1,17.683-14.49,10.7-14.575-7.6-.5-1.934a1.158,1.158,0,1,0-2.242.576l.415,1.614-9.6,5.569a42.154,42.154,0,0,1,6.639-17.184ZM25.389,68.026c0-1.2.052-2.387.149-3.567l11.3-6.567,14.62,7.624,5.6,17.583L46.381,92.875l-13.549-.767a42.323,42.323,0,0,1-7.443-24.082ZM37.875,98.17a43.385,43.385,0,0,1-3.25-3.641l11.269.637,2.828,10.9A42.728,42.728,0,0,1,37.875,98.17Zm30.144,12.486a42.553,42.553,0,0,1-16.576-3.332L48.1,94.442l10.724-9.821H77.3L88,94.441,84.658,107.3a42.548,42.548,0,0,1-16.639,3.36ZM98.163,98.17a42.737,42.737,0,0,1-10.782,7.857l2.82-10.86,11.209-.634A43.3,43.3,0,0,1,98.163,98.17Zm12.486-30.144A42.322,42.322,0,0,1,103.2,92.112l-13.488.763L79,83.037l5.609-17.53L99.2,57.891l11.3,6.565c.1,1.181.15,2.372.15,3.57Zm-.482-6.442-9.6-5.577,2.955-11.6a42.154,42.154,0,0,1,6.643,17.175Zm-11.928-5.8L83.606,63.42,69.174,52.673l-.1-17.536L80.09,27.123A42.4,42.4,0,0,1,98.163,37.882a43.316,43.316,0,0,1,3.6,4.079Z" transform="translate(0 0)" fill="#284268"/>
  </g>
</svg>
