<svg xmlns="http://www.w3.org/2000/svg" width="82.888" height="82.893" viewBox="0 0 82.888 82.893">
  <g id="basketball-ball" transform="translate(-17.874 -17.829)">
    <path id="Path_4580" data-name="Path 4580" d="M110.812,23.851v54.36a65.881,65.881,0,0,1-21.063-3.456,33.807,33.807,0,0,0,1.9-10.827A34.42,34.42,0,0,0,80.24,37.845,40.338,40.338,0,0,1,110.812,23.83Z" transform="translate(-51.513 -4.957)" fill="#df8a59"/>
    <path id="Path_4581" data-name="Path 4581" d="M367.322,103.73a40.4,40.4,0,0,1,9.894,26.6,65.6,65.6,0,0,1-21.8,11.2,33.479,33.479,0,0,1-1.571-10.976,34.377,34.377,0,0,1,13.465-26.8Z" transform="translate(-277.499 -70.954)" fill="#bf6743"/>
    <path id="Path_4582" data-name="Path 4582" d="M384.722,256.58a40.467,40.467,0,0,1-10.754,27.345,34.365,34.365,0,0,1-11.048-16.15A65.6,65.6,0,0,0,384.722,256.58Z" transform="translate(-285.005 -197.206)" fill="#ad5a3d"/>
    <path id="Path_4583" data-name="Path 4583" d="M286.455,37.733l-.014.012a34.377,34.377,0,0,0-13.465,26.8,33.479,33.479,0,0,0,1.571,10.976,65.819,65.819,0,0,1-18.617,2.685V23.83a40.5,40.5,0,0,1,30.525,13.9Z" transform="translate(-196.632 -4.957)" fill="#cc764c"/>
    <path id="Path_4584" data-name="Path 4584" d="M274.547,320.907a34.364,34.364,0,0,0,11.048,16.15A40.352,40.352,0,0,1,255.93,350.01V323.592a65.836,65.836,0,0,0,18.626-2.688Z" transform="translate(-196.632 -250.338)" fill="#ba6847"/>
    <path id="Path_4585" data-name="Path 4585" d="M107.186,319.954v26.418A40.481,40.481,0,0,1,75.85,331.456,34.832,34.832,0,0,0,86.129,316.5a65.871,65.871,0,0,0,21.057,3.454Z" transform="translate(-47.887 -246.7)" fill="#ce7b51"/>
    <path id="Path_4586" data-name="Path 4586" d="M33.693,104.37A34.42,34.42,0,0,1,45.1,130.454a33.808,33.808,0,0,1-1.9,10.829,65.608,65.608,0,0,1-19.32-10.4,40.2,40.2,0,0,1,8.1-24.4Q32.814,105.391,33.693,104.37Z" transform="translate(-4.967 -71.482)" fill="#ea8e60"/>
    <path id="Path_4587" data-name="Path 4587" d="M43.21,267.155a34.832,34.832,0,0,1-10.279,14.956A40.408,40.408,0,0,1,23.89,256.76a65.608,65.608,0,0,0,19.32,10.4Z" transform="translate(-4.969 -197.355)" fill="#d8825b"/>
    <path id="Path_4588" data-name="Path 4588" d="M79.9,379.044a35.205,35.205,0,0,1-4.05,4.073,40.481,40.481,0,0,0,31.336,14.916v-.6A40.493,40.493,0,0,1,79.9,379.044Z" transform="translate(-47.887 -298.361)" fill="#ea916a"/>
    <path id="Path_4589" data-name="Path 4589" d="M84.086,41.936q.664-1,1.393-1.977a40.255,40.255,0,0,1,25.313-15.516V23.83A40.342,40.342,0,0,0,80.217,37.849,34.267,34.267,0,0,1,84.086,41.936Z" transform="translate(-51.494 -4.957)" fill="#f49e73"/>
    <path id="Path_4590" data-name="Path 4590" d="M37.558,108.462a34.267,34.267,0,0,0-3.865-4.092q-.88,1.021-1.7,2.114a40.2,40.2,0,0,0-8.1,24.4,65.925,65.925,0,0,0,7.28,4.919,40.252,40.252,0,0,1,6.39-27.344Z" transform="translate(-4.966 -71.482)" fill="#ffb08d"/>
    <path id="Path_4591" data-name="Path 4591" d="M36.981,278.039a40.442,40.442,0,0,1-5.812-16.36,65.924,65.924,0,0,1-7.279-4.919,40.408,40.408,0,0,0,9.041,25.351A35.2,35.2,0,0,0,36.981,278.039Z" transform="translate(-4.969 -197.355)" fill="#f49d7a"/>
    <g id="Group_12" data-name="Group 12" transform="translate(17.874 17.829)">
      <path id="Path_4592" data-name="Path 4592" d="M84.217,26.145a41.441,41.441,0,1,0-24.986,74.577,42.047,42.047,0,0,0,5.9-.417,41.442,41.442,0,0,0,19.087-74.16ZM27.86,35.628c.313-.417.635-.824.963-1.226A33.48,33.48,0,0,1,39.093,58.96a32.827,32.827,0,0,1-1.516,9.5A64.55,64.55,0,0,1,19.96,58.885a39.059,39.059,0,0,1,7.9-23.256Zm-7.5,29.17q-.231-1.63-.325-3.256a66.566,66.566,0,0,0,16.858,8.891,33.717,33.717,0,0,1-8.8,12.816A39.131,39.131,0,0,1,20.355,64.8ZM58.266,98.62A38.94,38.94,0,0,1,35.68,90.731a39.736,39.736,0,0,1-6.269-5.86A35.823,35.823,0,0,0,38.874,71.1a66.683,66.683,0,0,0,19.392,3.185Zm0-26.42a64.271,64.271,0,0,1-18.7-3.068,34.914,34.914,0,0,0,1.622-10.149,35.566,35.566,0,0,0-11-26.167A39.06,39.06,0,0,1,53.8,20.309a38.512,38.512,0,0,1,4.467-.38Zm2.088-52.276a38.936,38.936,0,0,1,22.614,7.89,39.733,39.733,0,0,1,5.339,4.833A35.308,35.308,0,0,0,75.3,59.569a34.733,34.733,0,0,0,1.313,10.289A64.258,64.258,0,0,1,60.354,72.2Zm4.5,78.312a38.548,38.548,0,0,1-4.5.38V74.288a66.6,66.6,0,0,0,16.888-2.439A35.2,35.2,0,0,0,87.45,86.8a39.056,39.056,0,0,1-22.6,11.432Zm25.926-15.32q-.917,1.22-1.914,2.355a33.127,33.127,0,0,1-9.62-14.015c.508-.159,1.016-.322,1.521-.493A66.58,66.58,0,0,0,98.62,61.5a39.078,39.078,0,0,1-7.844,21.415ZM80.093,68.786c-.493.167-.987.326-1.483.481a32.662,32.662,0,0,1-1.223-9.658,33.239,33.239,0,0,1,12.3-25.389,39.1,39.1,0,0,1,8.6,19.527,39.974,39.974,0,0,1,.392,5.109,64.536,64.536,0,0,1-18.58,9.93Z" transform="translate(-17.874 -17.829)" fill="#284268"/>
      <path id="Path_4593" data-name="Path 4593" d="M321.688,71.723a1.044,1.044,0,0,0,.693-1.826,34.284,34.284,0,0,0-12.8-7.14,1.044,1.044,0,1,0-.6,2A32.182,32.182,0,0,1,321,71.46,1.039,1.039,0,0,0,321.688,71.723Z" transform="translate(-257.708 -54.902)" fill="#284268"/>
      <path id="Path_4594" data-name="Path 4594" d="M277.18,56.147c-.832-.15-1.679-.269-2.52-.356a1.044,1.044,0,1,0-.212,2.077c.788.081,1.583.193,2.364.334a1.062,1.062,0,0,0,.186.017,1.044,1.044,0,0,0,.182-2.073Z" transform="translate(-229.027 -49.181)" fill="#284268"/>
    </g>
  </g>
</svg>
