<svg xmlns="http://www.w3.org/2000/svg" width="98.5" height="90.893" viewBox="0 0 98.5 90.893">
  <g id="chess" transform="translate(-9.999 -28.999)">
    <path id="Path_4457" data-name="Path 4457" d="M376,444h24.024v6.607H376Z" transform="translate(-292.727 -331.917)" fill="#6d6d93"/>
    <path id="Path_4458" data-name="Path 4458" d="M401,262h13.814v5.005H401Z" transform="translate(-312.722 -186.354)" fill="#8f8fb7"/>
    <path id="Path_4459" data-name="Path 4459" d="M409.121,192.13a6.782,6.782,0,1,1-6.781,6.781A6.782,6.782,0,0,1,409.121,192.13Z" transform="translate(-313.793 -130.472)" fill="#6d6d93"/>
    <path id="Path_4460" data-name="Path 4460" d="M162,424h37.438v10.21H162Z" transform="translate(-121.57 -315.921)" fill="#84a0a3"/>
    <path id="Path_4461" data-name="Path 4461" d="M16,444H40.024v6.607H16Z" transform="translate(-4.8 -331.917)" fill="#6d6d93"/>
    <path id="Path_4462" data-name="Path 4462" d="M42,262H55.614v5.005H42Z" transform="translate(-25.595 -186.354)" fill="#8f8fb7"/>
    <path id="Path_4463" data-name="Path 4463" d="M49.271,192.13a6.782,6.782,0,1,1-6.781,6.781A6.782,6.782,0,0,1,49.271,192.13Z" transform="translate(-25.987 -130.472)" fill="#6d6d93"/>
    <path id="Path_4464" data-name="Path 4464" d="M413.731,286.6l1.548,25.826H401.14l1.55-25.826Z" transform="translate(-312.834 -206.029)" fill="#6d6d93"/>
    <path id="Path_4465" data-name="Path 4465" d="M53.881,286.6l1.548,25.826H41.29L42.84,286.6Z" transform="translate(-25.027 -206.029)" fill="#6d6d93"/>
    <path id="Path_4466" data-name="Path 4466" d="M403.228,415H387.162A2.094,2.094,0,0,0,385,417.07v3.736h20.421V417.07A2.12,2.12,0,0,0,403.228,415Z" transform="translate(-299.925 -308.723)" fill="#8f8fb7"/>
    <path id="Path_4467" data-name="Path 4467" d="M43.259,415H27.192A2.12,2.12,0,0,0,25,417.07v3.736H45.421V417.07A2.094,2.094,0,0,0,43.259,415Z" transform="translate(-11.998 -308.723)" fill="#8f8fb7"/>
    <path id="Path_4468" data-name="Path 4468" d="M215.091,163.66l2.4,42.994H191.97l2.4-42.994Z" transform="translate(-145.54 -107.702)" fill="#84a0a3"/>
    <path id="Path_4469" data-name="Path 4469" d="M205.658,378h-25.8A2.938,2.938,0,0,0,177,380.967v6.242h31.632v-6.242A3.035,3.035,0,0,0,205.658,378Z" transform="translate(-133.567 -279.13)" fill="#a4bdc1"/>
    <path id="Path_4470" data-name="Path 4470" d="M193,118h25.226v9.209H193Z" transform="translate(-146.364 -71.183)" fill="#a4bdc1"/>
    <path id="Path_4471" data-name="Path 4471" d="M197.826,35v7.007H192.22V35h-7.207v7.007h-5.606V35H172V51.617h33.234V35Z" transform="translate(-129.568 -4.8)" fill="#84a0a3"/>
    <path id="Path_4472" data-name="Path 4472" d="M162,424h6.006v10.21H162Z" transform="translate(-121.57 -315.921)" fill="#6b8687"/>
    <path id="Path_4473" data-name="Path 4473" d="M194.387,164l-2.394,42.843H198L200.393,164Z" transform="translate(-145.559 -107.974)" fill="#6b8687"/>
    <path id="Path_4474" data-name="Path 4474" d="M180,378h-.139A2.938,2.938,0,0,0,177,380.967v6.242h6.006v-6.242A2.938,2.938,0,0,1,185.869,378Z" transform="translate(-133.567 -279.13)" fill="#8fa7aa"/>
    <path id="Path_4475" data-name="Path 4475" d="M172,35h6.006V51.617H172Z" transform="translate(-129.568 -4.8)" fill="#6b8687"/>
    <path id="Path_4476" data-name="Path 4476" d="M303,35h5.606v7.007H303Z" transform="translate(-234.342 -4.8)" fill="#6b8687"/>
    <path id="Path_4477" data-name="Path 4477" d="M239,35h5.606v7.007H239Z" transform="translate(-183.155 -4.8)" fill="#6b8687"/>
    <path id="Path_4478" data-name="Path 4478" d="M193,118h6.006v9.209H193Z" transform="translate(-146.364 -71.183)" fill="#8fa7aa"/>
    <g id="Group_5" data-name="Group 5" transform="translate(9.999 28.999)">
      <path id="Path_4479" data-name="Path 4479" d="M35.29,236.513h-.666v-2.536a3.358,3.358,0,0,0-3.083-3.336L30.083,207.4a1.157,1.157,0,0,0,1.138-1.2v-4.9a1.138,1.138,0,0,0-1.1-1.221H28.514a7.845,7.845,0,0,0,2.754-6.015,7.983,7.983,0,1,0-15.965,0,7.85,7.85,0,0,0,2.754,6.016H16.336A1.161,1.161,0,0,0,15.2,201.3v4.9a1.216,1.216,0,0,0,1.132,1.281h.2l-1.425,23.187a3.336,3.336,0,0,0-3.31,3.307v2.536h-.636A1.13,1.13,0,0,0,10,237.664v6.685a1.148,1.148,0,0,0,1.166,1.173H35.289a1.123,1.123,0,0,0,1.136-1.173v-6.685a1.106,1.106,0,0,0-1.136-1.152ZM17.7,194.07a5.58,5.58,0,1,1,5.58,5.58A5.58,5.58,0,0,1,17.7,194.07Zm-.1,8.409H28.818v2.6H17.607Zm1.337,5.005h8.779l1.4,23.224H17.539ZM14.2,233.977a.922.922,0,0,1,.99-.868H31.26a.9.9,0,0,1,.961.868v2.536H14.2Zm19.82,9.142H12.4v-4.2H34.023Z" transform="translate(-9.999 -154.629)" fill="#284268"/>
      <path id="Path_4480" data-name="Path 4480" d="M395.256,236.513h-.636v-2.536a3.371,3.371,0,0,0-3.1-3.336l-1.45-23.238a1.163,1.163,0,0,0,1.145-1.2v-4.9a1.161,1.161,0,0,0-1.132-1.221h-1.606a7.844,7.844,0,0,0,2.755-6.015,7.983,7.983,0,1,0-15.965,0,7.85,7.85,0,0,0,2.755,6.016H376.3a1.137,1.137,0,0,0-1.1,1.221v4.9a1.192,1.192,0,0,0,1.1,1.281h.2l-1.411,23.187a3.323,3.323,0,0,0-3.294,3.307v2.536h-.666A1.106,1.106,0,0,0,370,237.664v6.685a1.123,1.123,0,0,0,1.136,1.173h24.124a1.148,1.148,0,0,0,1.166-1.173v-6.685a1.13,1.13,0,0,0-1.166-1.152ZM377.671,194.07a5.58,5.58,0,1,1,5.58,5.58A5.58,5.58,0,0,1,377.671,194.07Zm-.068,8.409h11.211v2.6H377.6Zm1.307,5.005h8.779l1.4,23.224H377.506Zm-4.71,26.494a.9.9,0,0,1,.961-.868h16.068a.922.922,0,0,1,.99.868v2.536H374.2Zm19.82,9.142H372.4v-4.2H394.02Z" transform="translate(-297.922 -154.629)" fill="#284268"/>
      <path id="Path_4481" data-name="Path 4481" d="M157.27,119.491h37.386a1.132,1.132,0,0,0,1.185-1.135V108a1.12,1.12,0,0,0-1.185-1.119h-1.618v-5.041a4.092,4.092,0,0,0-3.123-3.92l-2.322-40.689h1.019a1.281,1.281,0,0,0,1.223-1.269v-7.94h2.631a1.114,1.114,0,0,0,1.173-1.125V30.171A1.153,1.153,0,0,0,192.466,29H185a1.15,1.15,0,0,0-1.169,1.173v5.835h-3.2V30.171A1.15,1.15,0,0,0,179.456,29h-7.227a1.188,1.188,0,0,0-1.213,1.173v5.835h-3.2V30.171A1.114,1.114,0,0,0,166.687,29h-7.469A1.191,1.191,0,0,0,158,30.171V46.893a1.152,1.152,0,0,0,1.217,1.125h2.987v7.94a1.186,1.186,0,0,0,1.108,1.269h1.015l-.49,8.175a1.218,1.218,0,0,0,1.169,1.251v-.008a1.229,1.229,0,0,0,1.229-1.1l.5-8.314h18.45l2.268,40.441H164.469l1.353-24.2a1.184,1.184,0,0,0-1.2-1.247,1.21,1.21,0,0,0-1.2,1.145l-1.357,24.512A4.086,4.086,0,0,0,159,101.837v5.041H157.27A1.2,1.2,0,0,0,156,108v10.36A1.207,1.207,0,0,0,157.27,119.491Zm30.162-64.666H164.609V48.018h22.823ZM160.4,45.616V31.4h5.005v5.855a1.228,1.228,0,0,0,1.278,1.152h5.541a1.15,1.15,0,0,0,1.189-1.152V31.4h4.8v5.855a1.188,1.188,0,0,0,1.233,1.152H185a1.188,1.188,0,0,0,1.233-1.152V31.4h5.005V45.616Zm1,56.222a1.74,1.74,0,0,1,1.662-1.766h25.791a1.84,1.84,0,0,1,1.777,1.766v5.041h-29.23Zm-3,7.443h35.036v7.808H158.4Z" transform="translate(-126.77 -28.999)" fill="#284268"/>
      <path id="Path_4482" data-name="Path 4482" d="M216.261,279.227a1.2,1.2,0,0,0,1.166,1.235h.035a1.2,1.2,0,0,0,1.2-1.167l.473-16.332a1.2,1.2,0,1,0-2.4-.07Z" transform="translate(-174.966 -215.135)" fill="#284268"/>
      <path id="Path_4483" data-name="Path 4483" d="M221.2,193.618h.035a1.2,1.2,0,0,0,1.2-1.166L222.6,187a1.2,1.2,0,1,0-2.4-.07l-.158,5.455A1.2,1.2,0,0,0,221.2,193.618Z" transform="translate(-177.986 -154.376)" fill="#284268"/>
      <path id="Path_4484" data-name="Path 4484" d="M219.273,236.679a1.2,1.2,0,0,0,1.166,1.236h.035a1.2,1.2,0,0,0,1.2-1.166l.028-.961a1.2,1.2,0,1,0-2.4-.07Z" transform="translate(-177.375 -193.399)" fill="#284268"/>
    </g>
  </g>
</svg>
