<svg xmlns="http://www.w3.org/2000/svg" width="105.499" height="77.766" viewBox="0 0 105.499 77.766">
  <g id="dumbbell_2_" data-name="dumbbell(2)" transform="translate(-16 -78.926)">
    <path id="Path_4485" data-name="Path 4485" d="M182.753,247.625a5.63,5.63,0,0,0-4.03-1.695A5.733,5.733,0,0,0,173,251.715v28.243a5.715,5.715,0,1,0,11.429,0V251.715A5.75,5.75,0,0,0,182.753,247.625Z" transform="translate(-122.492 -130.298)" fill="#6d7486"/>
    <path id="Path_4486" data-name="Path 4486" d="M72.753,86.625a5.63,5.63,0,0,0-4.03-1.695A5.733,5.733,0,0,0,63,90.715v28.243a5.715,5.715,0,0,0,11.429,0V90.715A5.749,5.749,0,0,0,72.753,86.625Z" transform="translate(-36.669 -4.684)" fill="#6d7486"/>
    <path id="Path_4487" data-name="Path 4487" d="M458.387,281.771v17.078a4.472,4.472,0,0,1-8.9.651V281.121a4.472,4.472,0,0,1,8.9.651Z" transform="translate(-338.213 -154.772)" fill="#4a5160"/>
    <path id="Path_4488" data-name="Path 4488" d="M140.929,281.137V299.49a4.472,4.472,0,0,1-8.9-.637V281.775a4.472,4.472,0,0,1,8.9-.637Z" transform="translate(-90.528 -154.775)" fill="#4a5160"/>
    <path id="Path_4489" data-name="Path 4489" d="M348.387,120.771v17.078a4.472,4.472,0,0,1-8.9.651V120.121a4.472,4.472,0,0,1,8.9.651Z" transform="translate(-252.39 -29.158)" fill="#4a5160"/>
    <path id="Path_4490" data-name="Path 4490" d="M30.929,120.137V138.49a4.472,4.472,0,0,1-8.9-.637V120.775a4.472,4.472,0,0,1,8.9-.637Z" transform="translate(-4.705 -29.161)" fill="#4a5160"/>
    <path id="Path_4491" data-name="Path 4491" d="M262.346,311.45v11.011H224.18V311.45h38.166Z" transform="translate(-162.424 -181.417)" fill="#6d6d93"/>
    <path id="Path_4492" data-name="Path 4492" d="M152.346,150.45v11.011H114.18V150.45h38.166Z" transform="translate(-76.601 -55.804)" fill="#6d6d93"/>
    <path id="Path_4493" data-name="Path 4493" d="M402.7,245.93a5.669,5.669,0,0,0-4.047,1.695,5.729,5.729,0,0,0-1.648,4.09v28.243a5.715,5.715,0,1,0,11.429,0V251.715a5.74,5.74,0,0,0-5.734-5.785Z" transform="translate(-297.26 -130.298)" fill="#6d7486"/>
    <path id="Path_4494" data-name="Path 4494" d="M292.694,84.93a5.669,5.669,0,0,0-4.047,1.695A5.728,5.728,0,0,0,287,90.715v28.243a5.715,5.715,0,1,0,11.429,0V90.715a5.74,5.74,0,0,0-5.733-5.785Z" transform="translate(-211.436 -4.684)" fill="#6d7486"/>
    <path id="Path_4495" data-name="Path 4495" d="M27.085,137.85V120.773a4.467,4.467,0,0,1,1.943-3.687,4.467,4.467,0,0,0-7,3.687V137.85a4.467,4.467,0,0,0,7,3.687,4.459,4.459,0,0,1-1.942-3.687Z" transform="translate(-4.705 -29.159)" fill="#555d6b"/>
    <g id="Group_6" data-name="Group 6" transform="translate(16 78.926)">
      <path id="Path_4496" data-name="Path 4496" d="M201.474,247.077a6.486,6.486,0,0,0-3.164.919v-.71a7.033,7.033,0,1,0-14.067,0v7.2H149.078v-7.2a7.033,7.033,0,1,0-14.067,0v.7a6.5,6.5,0,0,0-3.165-.911A5.846,5.846,0,0,0,126,252.868v17.077a5.846,5.846,0,0,0,5.846,5.792,6.49,6.49,0,0,0,3.165-.915v.706a7.033,7.033,0,0,0,14.067,0v-7.2h35.166v7.2a7.033,7.033,0,1,0,14.067,0v-.71a6.485,6.485,0,0,0,3.164.919,5.846,5.846,0,0,0,5.848-5.791V252.868A5.846,5.846,0,0,0,201.474,247.077Zm-66.463,23.39a3.387,3.387,0,0,1-3.165,2.633,3.205,3.205,0,0,1-3.209-3.154V252.868a3.205,3.205,0,0,1,3.209-3.154,3.381,3.381,0,0,1,3.165,2.637Zm11.429,5.061a4.4,4.4,0,1,1-8.792,0V247.286a4.4,4.4,0,0,1,8.792,0Zm37.8-9.835H149.078v-8.572h35.166Zm11.429,9.835a4.4,4.4,0,1,1-8.792,0V247.286a4.4,4.4,0,0,1,8.792,0Zm9.011-5.582a3.206,3.206,0,0,1-3.21,3.154,3.387,3.387,0,0,1-3.164-2.622V252.337a3.387,3.387,0,0,1,3.164-2.622,3.206,3.206,0,0,1,3.21,3.154Z" transform="translate(-101.823 -204.795)" fill="#284268"/>
      <path id="Path_4497" data-name="Path 4497" d="M21.794,114.482a5.772,5.772,0,0,0,3.217-.984v.7a7.129,7.129,0,0,0,6.923,7.179,7.051,7.051,0,0,0,7.143-7.1v-7.2H74.244v7.2a7.033,7.033,0,0,0,14.067,0v-.71a6.486,6.486,0,0,0,3.164.919,5.846,5.846,0,0,0,5.848-5.791V91.614a5.846,5.846,0,0,0-5.848-5.792,6.486,6.486,0,0,0-3.164.919v-.71a7.033,7.033,0,0,0-14.067,0v7.2H39.078v-7.2a7.051,7.051,0,0,0-7.143-7.1,7.129,7.129,0,0,0-6.923,7.179v.7A5.79,5.79,0,0,0,16,91.613v17.078A5.8,5.8,0,0,0,21.794,114.482Zm66.516-23.4a3.387,3.387,0,0,1,3.164-2.622,3.206,3.206,0,0,1,3.21,3.154v17.078a3.206,3.206,0,0,1-3.21,3.154,3.387,3.387,0,0,1-3.164-2.622Zm-11.429-5.05a4.4,4.4,0,1,1,8.792,0v28.241a4.4,4.4,0,0,1-8.792,0Zm-37.8,9.835H74.244v8.572H39.078Zm-20.44-4.253a3.156,3.156,0,0,1,6.284-.42l.089-.012v.509a1.319,1.319,0,0,0,2.637,0V86.064a4.464,4.464,0,0,1,4.327-4.5,4.411,4.411,0,0,1,4.465,4.467v28.209a4.464,4.464,0,0,1-4.327,4.5,4.411,4.411,0,0,1-4.465-4.467V100.482a1.319,1.319,0,1,0-2.637,0v8.673l-.092-.013a3.157,3.157,0,0,1-6.282-.451Z" transform="translate(-16 -78.926)" fill="#284268"/>
      <path id="Path_4498" data-name="Path 4498" d="M197.519,122.637h11.407a1.319,1.319,0,1,0,0-2.637H197.519a1.319,1.319,0,0,0,0,2.637Z" transform="translate(-156.594 -110.972)" fill="#284268"/>
      <path id="Path_4499" data-name="Path 4499" d="M158.784,123.637h3.651a1.319,1.319,0,0,0,0-2.637h-3.651a1.319,1.319,0,0,0,0,2.637Z" transform="translate(-126.372 -111.753)" fill="#284268"/>
      <path id="Path_4500" data-name="Path 4500" d="M130.784,123.637h1.234a1.319,1.319,0,0,0,0-2.637h-1.234a1.319,1.319,0,0,0,0,2.637Z" transform="translate(-104.527 -111.753)" fill="#284268"/>
      <path id="Path_4501" data-name="Path 4501" d="M76.319,127.314A1.319,1.319,0,0,0,77.637,126v-1.423a1.319,1.319,0,0,0-2.637,0V126A1.319,1.319,0,0,0,76.319,127.314Z" transform="translate(-62.032 -113.511)" fill="#284268"/>
      <path id="Path_4502" data-name="Path 4502" d="M76.319,165.414a1.319,1.319,0,0,0,1.319-1.319V148.047a1.319,1.319,0,0,0-2.637,0V164.1A1.319,1.319,0,0,0,76.319,165.414Z" transform="translate(-62.032 -131.826)" fill="#284268"/>
    </g>
  </g>
</svg>
