<?xml version="1.0" standalone="no"?>
<!DOCTYPE svg PUBLIC "-//W3C//DTD SVG 20010904//EN"
 "http://www.w3.org/TR/2001/REC-SVG-20010904/DTD/svg10.dtd">
<svg version="1.0" xmlns="http://www.w3.org/2000/svg"
 width="80px" height="185.000000pt" viewBox="0 0 185.000000 185.000000">

<g transform="translate(0.000000,185.000000) scale(0.100000,-0.100000)"
fill="white" stroke="none">
<path d="M670 1514 c0 -57 -4 -104 -9 -104 -5 0 -28 7 -51 15 -74 26 -70 37
-70 -184 l0 -199 65 -57 65 -57 0 -149 0 -149 113 0 c75 0 117 4 125 12 9 9
15 9 24 0 8 -8 49 -12 120 -12 l108 0 0 149 0 150 64 53 65 53 0 208 c1 130
-3 207 -9 207 -5 0 -33 -9 -62 -20 -29 -11 -54 -20 -55 -20 -2 0 -3 45 -3 99
0 55 -4 102 -8 105 -11 7 -132 -37 -188 -68 l-48 -27 -70 35 c-39 19 -95 41
-123 50 l-53 15 0 -105z m157 -10 c40 -20 76 -41 79 -45 3 -5 -10 -21 -28 -36
-18 -15 -46 -41 -61 -57 -28 -29 -29 -29 -55 -14 -25 16 -27 22 -30 102 -2 62
1 86 9 86 7 0 46 -16 86 -36z m273 -46 c0 -81 -1 -83 -28 -99 -28 -16 -29 -15
-68 20 -21 20 -50 45 -64 54 -25 18 -25 18 -5 34 26 20 136 73 153 73 8 0 12
-23 12 -82z m-103 -152 c100 -104 103 -117 103 -398 l0 -228 -68 0 c-45 0 -75
5 -90 16 -20 14 -24 14 -44 0 -15 -11 -46 -16 -95 -16 l-73 0 0 233 c0 229 0
234 25 284 28 56 139 183 160 183 7 0 44 -33 82 -74z m237 -85 l3 -152 -36
-31 -36 -32 -2 40 c-7 110 -16 144 -48 198 l-33 55 34 22 c46 28 108 58 112
54 2 -2 5 -71 6 -154z m-571 123 c92 -45 93 -46 62 -92 -35 -52 -55 -122 -55
-189 0 -29 -4 -53 -8 -53 -5 0 -20 13 -35 28 -27 28 -27 29 -27 180 0 84 3
152 6 152 3 0 29 -12 57 -26z"/>
</g>
</svg>
