<svg xmlns="http://www.w3.org/2000/svg" width="83.767" height="83.766" viewBox="0 0 83.767 83.766">
  <g id="ping-pong" transform="translate(-26.41 -26.403)">
    <path id="Path_4503" data-name="Path 4503" d="M142.854,205.07,100.49,162.706l-.053-.026c-5.029,10.747-4.862,22.812.777,32.076l9.6,9.585.022.022c9.26,5.622,21.313,5.785,32.046.761Z" transform="translate(-57.563 -111.417)" fill="#c79a83"/>
    <path id="Path_4504" data-name="Path 4504" d="M174.247,41.03c12.686,12.684,11.2,34.739-3.327,49.262A41.769,41.769,0,0,1,159.1,98.618l-.026-.053L116.713,56.2l-.053-.026a41.769,41.769,0,0,1,8.326-11.817c14.523-14.523,36.578-16.013,49.262-3.327Z" transform="translate(-73.786 -4.912)" fill="#dd5e6a"/>
    <ellipse id="Ellipse_7" data-name="Ellipse 7" cx="7.344" cy="7.343" rx="7.344" ry="7.343" transform="translate(73.442 35.989)" fill="#5fa8ed"/>
    <path id="Path_4505" data-name="Path 4505" d="M105.909,168.153l.053.026-5.473-5.473-.053-.026c-5.029,10.747-4.862,22.812.777,32.076l5.462,5.454C101.048,190.949,100.883,178.893,105.909,168.153Z" transform="translate(-57.563 -111.417)" fill="#aa816f"/>
    <path id="Path_4506" data-name="Path 4506" d="M176.8,43.953a28.7,28.7,0,0,0-2.55-2.923c-12.684-12.686-34.739-11.2-49.262,3.327a41.769,41.769,0,0,0-8.326,11.817l.053.026,5.429,5.429a41.771,41.771,0,0,1,8.317-11.8C143.921,36.367,163.855,34.107,176.8,43.953Z" transform="translate(-73.786 -4.912)" fill="#c15363"/>
    <path id="Path_4507" data-name="Path 4507" d="M349.2,395.1l.018-.009-.044-.044Z" transform="translate(-263.888 -301.398)" fill="#dd5e6a"/>
    <path id="Path_4508" data-name="Path 4508" d="M46.522,411.83l-2.534,2.534a6.781,6.781,0,1,1-9.59-9.59l2.534-2.534Z" transform="translate(-4.907 -307.276)" fill="#8e695b"/>
    <path id="Path_4509" data-name="Path 4509" d="M75.181,302.871a4.148,4.148,0,0,0-2.3,1.166L57.19,319.73l9.59,9.59,15.694-15.694a4.148,4.148,0,0,0,1.166-2.3l1.551-10.01Z" transform="translate(-25.165 -224.766)" fill="#997161"/>
    <g id="Group_7" data-name="Group 7" transform="translate(26.41 26.403)">
      <path id="Path_4510" data-name="Path 4510" d="M280.706,75.442a8.438,8.438,0,1,0,11.933,0A8.438,8.438,0,0,0,280.706,75.442Zm10.385,10.385a6.246,6.246,0,1,1,0-8.838,6.246,6.246,0,0,1,0,8.838Z" transform="translate(-232.295 -64.479)" fill="#284268"/>
      <path id="Path_4511" data-name="Path 4511" d="M76.447,26.486A40.909,40.909,0,0,0,50.426,38.67,41.81,41.81,0,0,0,38.655,61.133,33.469,33.469,0,0,0,42.28,83.162L28.717,96.724a7.876,7.876,0,1,0,11.138,11.138L53.419,94.3A32.426,32.426,0,0,0,69.49,98.416a36.587,36.587,0,0,0,5.995-.5A41.814,41.814,0,0,0,97.908,86.153a40.914,40.914,0,0,0,12.184-26.02c.65-9.624-2.5-18.428-8.857-24.79s-15.167-9.507-24.789-8.857Zm-38.14,79.828a5.687,5.687,0,0,1-8.042-8.042l1.76-1.76,8.042,8.042Zm3.308-3.308-8.042-8.042,14.92-14.92a3.032,3.032,0,0,1,1.69-.857l8.532-1.323L57.393,86.4a3.033,3.033,0,0,1-.857,1.69Zm66.294-43.02a38.73,38.73,0,0,1-11.547,24.62,40.944,40.944,0,0,1-10.811,7.76L58.836,65.651A1.095,1.095,0,1,0,57.288,67.2L83.426,93.336a37.092,37.092,0,0,1-8.3,2.421,31.418,31.418,0,0,1-20.1-3.067l3.056-3.056a5.205,5.205,0,0,0,1.473-2.9l1.552-10.01a1.095,1.095,0,0,0-1.249-1.249l-10.01,1.551a5.207,5.207,0,0,0-2.9,1.473l-3.056,3.056a31.408,31.408,0,0,1-3.074-20.062,37.067,37.067,0,0,1,2.428-8.337l8.888,8.887a1.094,1.094,0,1,0,1.548-1.548l-9.465-9.463a40.943,40.943,0,0,1,7.76-10.809,38.723,38.723,0,0,1,24.62-11.547c8.984-.609,17.186,2.312,23.094,8.22s8.828,14.11,8.221,23.095Z" transform="translate(-26.41 -26.403)" fill="#284268"/>
      <path id="Path_4512" data-name="Path 4512" d="M252.309,70.237c-.607.173-1.219.367-1.819.576a1.095,1.095,0,1,0,.723,2.066c.559-.2,1.129-.376,1.695-.537a1.095,1.095,0,0,0-.6-2.106Z" transform="translate(-209.013 -62.207)" fill="#284268"/>
      <path id="Path_4513" data-name="Path 4513" d="M171.064,84.846a34.813,34.813,0,0,0-7.987,5.986,35.264,35.264,0,0,0-4.326,5.248,1.095,1.095,0,0,0,1.817,1.222,33.087,33.087,0,0,1,4.057-4.922,32.636,32.636,0,0,1,7.485-5.611,1.095,1.095,0,1,0-1.045-1.923Z" transform="translate(-134.456 -74.076)" fill="#284268"/>
    </g>
  </g>
</svg>
