<svg xmlns="http://www.w3.org/2000/svg" width="30.938" height="30.939" viewBox="0 0 36.938 36.939">
  <g id="search-interface-symbol" transform="translate(-0.006)">
    <g id="_x34__4_" transform="translate(0.006)">
      <g id="Group_1151" data-name="Group 1151" transform="translate(0)">
        <path id="Path_12375" data-name="Path 12375" d="M36.594,34.929l-9.537-9.385a15.085,15.085,0,0,0,4.032-10.251A15.42,15.42,0,0,0,15.547,0,15.418,15.418,0,0,0,.006,15.294,15.418,15.418,0,0,0,15.547,30.588a15.629,15.629,0,0,0,9.782-3.415L34.9,36.594a1.209,1.209,0,0,0,1.69,0A1.164,1.164,0,0,0,36.594,34.929ZM15.547,28.235A13.047,13.047,0,0,1,2.4,15.294,13.047,13.047,0,0,1,15.547,2.353,13.046,13.046,0,0,1,28.7,15.294,13.046,13.046,0,0,1,15.547,28.235Z" transform="translate(-0.006)" fill="rgba(187,187,187,0.75)"/>
      </g>
    </g>
  </g>
</svg>
