<svg xmlns="http://www.w3.org/2000/svg" width="20.208" height="20.914" viewBox="0 0 26.208 26.914">
  <g id="settings_2_" data-name="settings(2)" transform="translate(-6.71)">
    <g id="Group_1152" data-name="Group 1152" transform="translate(6.71)">
      <path id="Path_12378" data-name="Path 12378" d="M32.465,16.406l-2.474-1.934a9.74,9.74,0,0,0,.058-1.016,9.446,9.446,0,0,0-.058-1.016L32.467,10.5a1.213,1.213,0,0,0,.293-1.545L30.187,4.508A1.193,1.193,0,0,0,28.7,3.973L25.78,5.145a10.008,10.008,0,0,0-1.753-1.017l-.444-3.1A1.191,1.191,0,0,0,22.395,0H17.236A1.188,1.188,0,0,0,16.05,1.023L15.6,4.13a10.317,10.317,0,0,0-1.749,1.017L10.928,3.972A1.216,1.216,0,0,0,9.451,4.5L6.876,8.954a1.206,1.206,0,0,0,.292,1.553l2.474,1.934a8.873,8.873,0,0,0,0,2.031L7.165,16.408a1.213,1.213,0,0,0-.292,1.545L9.446,22.4a1.19,1.19,0,0,0,1.488.535l2.919-1.172A10.1,10.1,0,0,0,15.6,22.785l.444,3.1a1.19,1.19,0,0,0,1.189,1.034H22.4a1.189,1.189,0,0,0,1.188-1.023l.445-3.106a10.365,10.365,0,0,0,1.749-1.018L28.7,22.942a1.205,1.205,0,0,0,.44.083,1.184,1.184,0,0,0,1.037-.608l2.584-4.474A1.211,1.211,0,0,0,32.465,16.406ZM19.815,17.942A4.486,4.486,0,1,1,24.3,13.457,4.49,4.49,0,0,1,19.815,17.942Z" transform="translate(-6.71)" fill="#464646"/>
    </g>
  </g>
</svg>
