<svg xmlns="http://www.w3.org/2000/svg" width="84.315" height="82.851" viewBox="0 0 84.315 82.851">
  <g id="shuttlecock" transform="translate(-26.989 -30.961)">
    <path id="Path_4428" data-name="Path 4428" d="M332.8,218.585l-18.071,8.286-14.885-9.679-.031-.031,17.944-13.62.151.93A16.911,16.911,0,0,0,332.8,218.585Z" transform="translate(-222.599 -140.81)" fill="#b2ddea"/>
    <path id="Path_4429" data-name="Path 4429" d="M265.169,134.309l-17.944,13.62L235.36,136.066l14.189-17.376A18.681,18.681,0,0,0,265.169,134.309Z" transform="translate(-170.014 -71.579)" fill="#c5e6ef"/>
    <path id="Path_4430" data-name="Path 4430" d="M245.814,287.24l-20.358,9.335L215.35,289.33l15.548-11.8.031.031Z" transform="translate(-153.687 -201.179)" fill="#bbe8f2"/>
    <path id="Path_4431" data-name="Path 4431" d="M206.852,52.005,192.663,69.381l-.064-.064-9.469-14.677-.1-.05,8.777-17.63a16.911,16.911,0,0,0,14.115,14.894Z" transform="translate(-127.317 -4.894)" fill="#cbe9f4"/>
    <path id="Path_4432" data-name="Path 4432" d="M192.6,224.944l-15.548,11.8-.112-.081-8.514-8.472-.015-.02,12.324-15.091Z" transform="translate(-115.388 -148.594)" fill="#ceecf4"/>
    <path id="Path_4433" data-name="Path 4433" d="M148.783,147.521l-12.324,15.091-7.166-9.981-.042-.02,9.9-19.881.1.05,9.469,14.677Z" transform="translate(-83.437 -83.035)" fill="#d5f0f7"/>
    <path id="Path_4434" data-name="Path 4434" d="M58.5,331.07l-.07.07,0,0-5.786,5.784,17.026,17.026,5.786-5.786.072-.072Z" transform="translate(-20.929 -244.864)" fill="#e75163"/>
    <path id="Path_4435" data-name="Path 4435" d="M53.629,379.916l-.092.092a12.039,12.039,0,0,1-17.026-17.026l.092-.092Z" transform="translate(-4.892 -270.826)" fill="#6d7486"/>
    <path id="Path_4436" data-name="Path 4436" d="M169.639,348.875l-17.247,7.908.072-.072-5.524-5.524,12.593-9.558Z" transform="translate(-97.87 -253.48)" fill="#b2ddea"/>
    <path id="Path_4437" data-name="Path 4437" d="M132.944,303.552l.112.081-12.593,9.558-5.973-5.973,9.926-12.157.015.02Z" transform="translate(-71.394 -215.482)" fill="#c5e6ef"/>
    <path id="Path_4438" data-name="Path 4438" d="M92.437,240.75l7.166,9.981-9.926,12.157L84.15,257.36l-.07.07,8.315-16.7Z" transform="translate(-46.582 -171.154)" fill="#cbe9f4"/>
    <path id="Path_4439" data-name="Path 4439" d="M62.107,334.825l0,0,.07-.07L58.5,331.07l-.07.07,0,0-5.786,5.784,3.682,3.682Z" transform="translate(-20.929 -244.864)" fill="#c4455b"/>
    <path id="Path_4440" data-name="Path 4440" d="M40.189,366.664l.092-.092L36.6,362.89l-.092.092a12.037,12.037,0,0,0,2.043,18.665A12.041,12.041,0,0,1,40.189,366.664Z" transform="translate(-4.888 -270.826)" fill="#575e6d"/>
    <g id="Group_3" data-name="Group 3" transform="translate(26.989 30.961)">
      <path id="Path_4441" data-name="Path 4441" d="M200.422,429.454a1.1,1.1,0,0,0,.466-.1l3.17-1.475a1.1,1.1,0,1,0-.932-2l-3.17,1.475a1.1,1.1,0,0,0,.467,2.106Z" transform="translate(-167.594 -353.092)" fill="#284268"/>
      <path id="Path_4442" data-name="Path 4442" d="M237.441,389.993a1.1,1.1,0,0,0,.465-.1l13.62-6.34a1.1,1.1,0,1,0-.932-2l-13.62,6.34a1.1,1.1,0,0,0,.467,2.106Z" transform="translate(-197.798 -316.925)" fill="#284268"/>
      <path id="Path_4443" data-name="Path 4443" d="M355.621,353.7a1.1,1.1,0,0,0,.465-.1l4.549-2.117a1.1,1.1,0,0,0-.932-2l-4.549,2.117a1.1,1.1,0,0,0,.467,2.106Z" transform="translate(-294.223 -290.76)" fill="#284268"/>
      <path id="Path_4444" data-name="Path 4444" d="M331.727,372.551a1.1,1.1,0,0,0,.465-.1l.8-.373a1.1,1.1,0,0,0-.932-2l-.8.374a1.1,1.1,0,0,0,.467,2.106Z" transform="translate(-274.728 -307.563)" fill="#284268"/>
      <path id="Path_4445" data-name="Path 4445" d="M40.131,113.812a13.057,13.057,0,0,0,9.294-3.85l5.737-5.737,55.5-25.447a1.1,1.1,0,0,0-.342-2.1A15.85,15.85,0,0,1,96.4,63.482l-.15-.928h0c-.005-.032-.009-.064-.017-.1a1.1,1.1,0,0,0-.9-.82,17.5,17.5,0,0,1-14.7-14.7,1.1,1.1,0,0,0-.8-.9,1.07,1.07,0,0,0-.114-.022v0l-.928-.15A15.85,15.85,0,0,1,65.589,31.948a1.1,1.1,0,0,0-2.087-.374L36.588,85.626l-5.749,5.75a13.144,13.144,0,0,0,9.293,22.437Zm14.727-11.878-4.113-4.113,10.936-8.3,7.9,5.663Zm5.108-13.884-10.8,8.194-4.586-4.586L53.1,81.223ZM54.508,79.5,65.429,66.131l10.105,10.1L61.743,86.7Zm17.384,14.62-8.369-6L77.251,77.7l12.592,8.188Zm34.792-15.953L92.219,84.8l-13.1-8.518L94.38,64.705a18.08,18.08,0,0,0,12.3,13.467ZM78.939,49.588A19.8,19.8,0,0,0,92.58,63.3L77.31,74.888,66.833,64.411ZM64.049,35.432A18.08,18.08,0,0,0,77.49,47.869L65.439,62.626,57.012,49.565ZM55.867,51.864l8.1,12.56L53.079,77.763,47.11,69.45ZM46,71.686l5.636,7.848L43.013,90.089l-4.126-4.126ZM31.744,93.658l1.48,1.48a1.1,1.1,0,1,0,1.562-1.562l-1.512-1.512,4.3-4.3,15.463,15.463-4.3,4.3-8.744-8.744a1.1,1.1,0,0,0-1.562,1.562l8.713,8.713a10.932,10.932,0,0,1-15.4-15.4Z" transform="translate(-26.989 -30.961)" fill="#284268"/>
    </g>
  </g>
</svg>
