<svg xmlns="http://www.w3.org/2000/svg" width="88.616" height="118.798" viewBox="0 0 88.616 118.798">
  <g id="soccer-field_1_" data-name="soccer-field(1)" transform="translate(88.616) rotate(90)">
    <path id="Path_4565" data-name="Path 4565" d="M116.012,0V85.766H0V0Z" transform="translate(1.393 1.545)" fill="#c79a83"/>
    <path id="Path_4566" data-name="Path 4566" d="M0,0H52.694V75.142H0Z" transform="translate(6.705 6.857)" fill="#75d87a"/>
    <path id="Path_4567" data-name="Path 4567" d="M0,0H52.694V75.142H0Z" transform="translate(59.399 6.857)" fill="#49c160"/>
    <path id="Path_4568" data-name="Path 4568" d="M12.319,0V24.639A12.319,12.319,0,0,1,12.319,0Z" transform="translate(47.08 32.109)" fill="#49c160"/>
    <path id="Path_4569" data-name="Path 4569" d="M0,0A12.319,12.319,0,0,1,12.319,12.319,12.319,12.319,0,0,1,0,24.639Z" transform="translate(59.399 32.109)" fill="#75d87a"/>
    <path id="Path_4570" data-name="Path 4570" d="M16.506,27.145v8.673H0V0H16.506V8.673H8.432V27.145h8.074Z" transform="translate(95.587 26.52)" fill="#75d87a"/>
    <path id="Path_4571" data-name="Path 4571" d="M16.429,0V35.818H0V27.145H8V8.673H0V0Z" transform="translate(6.705 26.52)" fill="#49c160"/>
    <g id="Group_11" data-name="Group 11" transform="translate(6.705 6.857)">
      <path id="Path_4572" data-name="Path 4572" d="M9.506,0V9.569A9.586,9.586,0,0,1,0,0Z" transform="translate(95.881)" fill="#4ca987"/>
      <path id="Path_4573" data-name="Path 4573" d="M0,0H9.506A9.586,9.586,0,0,1,0,9.569Z" fill="#4ca987"/>
      <path id="Path_4574" data-name="Path 4574" d="M9.506,9.492H0V0A9.589,9.589,0,0,1,9.506,9.492Z" transform="translate(0 65.65)" fill="#4ca987"/>
      <path id="Path_4575" data-name="Path 4575" d="M9.506,0V9.492H0A9.589,9.589,0,0,1,9.506,0Z" transform="translate(95.881 65.65)" fill="#4ca987"/>
    </g>
    <path id="Path_4576" data-name="Path 4576" d="M1.449,2.9h21.88a1.449,1.449,0,1,0,0-2.9H1.449a1.449,1.449,0,0,0,0,2.9Z" transform="translate(25.833 11.107)" fill="#284268"/>
    <path id="Path_4577" data-name="Path 4577" d="M2.609,0H1.449a1.449,1.449,0,0,0,0,2.9h1.16a1.449,1.449,0,1,0,0-2.9Z" transform="translate(19.267 11.107)" fill="#284268"/>
    <path id="Path_4578" data-name="Path 4578" d="M117.349,0H1.449A1.449,1.449,0,0,0,0,1.449V87.167a1.449,1.449,0,0,0,1.449,1.449h115.9a1.449,1.449,0,0,0,1.449-1.449V1.449A1.449,1.449,0,0,0,117.349,0ZM115.9,85.96H2.9V2.9h113Z" fill="#284268"/>
    <path id="Path_4579" data-name="Path 4579" d="M1.449,77.991H106.725a1.449,1.449,0,0,0,1.449-1.449V1.449A1.449,1.449,0,0,0,106.725,0H1.449A1.449,1.449,0,0,0,0,1.449V76.543A1.449,1.449,0,0,0,1.449,77.991ZM52.638,49.886a10.866,10.866,0,0,1,0-21.54Zm52.638,25.45H98.851a8.065,8.065,0,0,1,6.425-6.525Zm0-28.492h-5.071V31.39h5.071Zm0-18.351H98.705a1.356,1.356,0,0,0-1.4,1.389v18.47a1.356,1.356,0,0,0,1.4,1.389h6.571v5.8H91.755V22.7h13.522Zm0-25.595V9.5a8.15,8.15,0,0,1-6.425-6.6ZM55.536,28.347a10.866,10.866,0,0,1,0,21.54Zm0,24.46a13.767,13.767,0,0,0,0-27.382V2.9H95.918a10.891,10.891,0,0,0,9.358,9.546V19.8h-15a1.388,1.388,0,0,0-1.416,1.409V57.025a1.388,1.388,0,0,0,1.416,1.409h15v7.438a11.029,11.029,0,0,0-9.352,9.464H55.536ZM2.9,2.9H9.323A8.15,8.15,0,0,1,2.9,9.5Zm0,28.492H7.968V46.843H2.9Zm0,27.043H17.823a1.5,1.5,0,0,0,1.494-1.494V21.208A1.409,1.409,0,0,0,17.908,19.8H14a1.449,1.449,0,1,0,0,2.9h2.415V55.536H2.9v-5.8H9.391a1.422,1.422,0,0,0,1.474-1.389V29.882a1.422,1.422,0,0,0-1.474-1.389H2.9V22.7H4.346a1.449,1.449,0,1,0,0-2.9H2.9V12.443A10.891,10.891,0,0,0,12.256,2.9H52.638V25.426a13.767,13.767,0,0,0,0,27.382V75.335H12.249A11.029,11.029,0,0,0,2.9,65.872Zm0,10.377a8.065,8.065,0,0,1,6.425,6.525H2.9Z" transform="translate(5.312 5.312)" fill="#284268"/>
  </g>
</svg>
