<svg xmlns="http://www.w3.org/2000/svg" width="79.075" height="69.317" viewBox="0 0 79.075 69.317">
  <g id="swim" transform="translate(-10.642 -40.957)">
    <path id="Path_4547" data-name="Path 4547" d="M92.586,372.63A3.649,3.649,0,0,0,90,371.56H20.111a3.656,3.656,0,0,0,0,7.311H90a3.656,3.656,0,0,0,2.585-6.241Z" transform="translate(-4.876 -277.329)" fill="#5a5a77"/>
    <path id="Path_4548" data-name="Path 4548" d="M71.028,324.62c8.291,0,14.786,4.97,14.786,11.314s-6.5,11.314-14.786,11.314-14.788-4.97-14.788-11.314,6.5-11.314,14.788-11.314Z" transform="translate(-38.25 -237.953)" fill="#6d6d93"/>
    <ellipse id="Ellipse_8" data-name="Ellipse 8" cx="14.786" cy="11.314" rx="14.786" ry="11.314" transform="translate(52.721 86.667)" fill="#6d6d93"/>
    <path id="Path_4549" data-name="Path 4549" d="M112.9,248H45.108c-.019.483-.108.888-.108,1.366v7.174h68v-7.174C113,248.888,112.92,248.483,112.9,248Z" transform="translate(-28.821 -173.679)" fill="#4689d3"/>
    <ellipse id="Ellipse_9" data-name="Ellipse 9" cx="10.249" cy="6.776" rx="10.249" ry="6.776" transform="translate(57.259 91.205)" fill="#92e7f4"/>
    <path id="Path_4550" data-name="Path 4550" d="M94.659,352.78c5.65,0,10.247,3.039,10.247,6.776s-4.6,6.776-10.247,6.776-10.249-3.041-10.249-6.776S89.007,352.78,94.659,352.78Z" transform="translate(-61.881 -261.575)" fill="#92e7f4"/>
    <path id="Path_4551" data-name="Path 4551" d="M386.331,157.124H371.375a15.073,15.073,0,0,1,9.117-17.542l.047-.032a33.743,33.743,0,0,1,5.792,17.574Z" transform="translate(-302.252 -82.705)" fill="#5fa8ed"/>
    <path id="Path_4552" data-name="Path 4552" d="M56.628,143.016a15.049,15.049,0,0,1,3.992,14.176H45.67a33.743,33.743,0,0,1,5.782-17.561,15.02,15.02,0,0,1,5.176,3.386Z" transform="translate(-29.384 -82.773)" fill="#5fa8ed"/>
    <path id="Path_4553" data-name="Path 4553" d="M137.77,61.892l-.047.032a15.073,15.073,0,0,0-9.117,17.542H90.717A15.072,15.072,0,0,0,81.55,61.905a33.934,33.934,0,0,1,56.224-.006Z" transform="translate(-59.482 -5.048)" fill="#49bdff"/>
    <path id="Path_4554" data-name="Path 4554" d="M49.935,248.1H45.108c0-.032,0-.065,0-.1h0c-.019.483-.108.888-.108,1.366v7.174h4.834v-7.174C49.834,248.921,49.909,248.538,49.935,248.1Z" transform="translate(-28.821 -173.679)" fill="#3e7eb7"/>
    <path id="Path_4555" data-name="Path 4555" d="M50.5,157.191c0-.033.006-.064.007-.1h0a33.727,33.727,0,0,1,4.523-15.464,14.974,14.974,0,0,0-3.581-2,33.741,33.741,0,0,0-5.777,17.463c0,.032,0,.065-.005.1Z" transform="translate(-29.383 -82.773)" fill="#549ad3"/>
    <path id="Path_4556" data-name="Path 4556" d="M86.384,61.892a33.9,33.9,0,0,1,25.705-14.846c-.8-.057-1.609-.087-2.425-.087A33.891,33.891,0,0,0,81.55,61.892a14.974,14.974,0,0,1,3.581,2q.593-1.022,1.253-2Z" transform="translate(-59.482 -5.035)" fill="#48b5e5"/>
    <path id="Path_4557" data-name="Path 4557" d="M304.764,359.556c0-3.186,3.343-5.864,7.832-6.584a15.248,15.248,0,0,0-2.417-.192c-5.651,0-10.249,3.039-10.249,6.776s4.6,6.776,10.249,6.776a15.279,15.279,0,0,0,2.42-.193C308.108,365.419,304.764,362.742,304.764,359.556Z" transform="translate(-242.671 -261.575)" fill="#79cfd8"/>
    <path id="Path_4558" data-name="Path 4558" d="M89.244,359.556c0-3.186,3.343-5.863,7.832-6.584a15.263,15.263,0,0,0-2.417-.192c-5.651,0-10.249,3.039-10.249,6.776s4.6,6.776,10.249,6.776a15.241,15.241,0,0,0,2.417-.192C92.588,365.419,89.244,362.741,89.244,359.556Z" transform="translate(-61.881 -261.575)" fill="#79cfd8"/>
    <g id="Group_10" data-name="Group 10" transform="translate(10.642 40.957)">
      <path id="Path_4559" data-name="Path 4559" d="M97.4,348.928a15.155,15.155,0,0,0-15.553,0,6.272,6.272,0,0,0,0,11.191,15.155,15.155,0,0,0,15.553,0,6.272,6.272,0,0,0,0-11.191Zm-7.776,11.4c-5.031,0-9.282-2.66-9.282-5.809s4.25-5.809,9.282-5.809,9.282,2.66,9.282,5.809S94.654,360.333,89.623,360.333Z" transform="translate(-67.488 -297.5)" fill="#284268"/>
      <path id="Path_4560" data-name="Path 4560" d="M312.925,348.928a15.156,15.156,0,0,0-15.553,0,6.272,6.272,0,0,0,0,11.191,15.156,15.156,0,0,0,15.553,0,6.272,6.272,0,0,0,0-11.191Zm-7.776,11.4c-5.031,0-9.282-2.66-9.282-5.809s4.25-5.809,9.282-5.809,9.282,2.66,9.282,5.809S310.179,360.333,305.148,360.333Z" transform="translate(-248.283 -297.5)" fill="#284268"/>
      <path id="Path_4561" data-name="Path 4561" d="M85.125,326.621H82.1c-2.327-4.512-7.911-7.565-14.59-7.565s-12.263,3.053-14.59,7.565H47.367c-2.327-4.512-7.911-7.565-14.59-7.565s-12.263,3.053-14.59,7.565H15.235a4.593,4.593,0,0,0,0,9.185H18.09c2.267,4.512,7.914,7.754,14.687,7.754s12.42-3.242,14.687-7.754h5.357c2.267,4.512,7.914,7.754,14.687,7.754s12.419-3.242,14.687-7.754h2.931a4.593,4.593,0,0,0,0-9.185Zm-67.763,7.251H15.235a2.659,2.659,0,1,1,0-5.318h2.179a9.427,9.427,0,0,0-.39,2.753,9.694,9.694,0,0,0,.339,2.564Zm15.415,7.742c-7.749,0-13.82-4.545-13.82-10.348s6.07-10.347,13.82-10.347,13.82,4.545,13.82,10.347S40.527,341.614,32.777,341.614Zm19.316-7.742h-3.9a9.694,9.694,0,0,0,.338-2.564,9.432,9.432,0,0,0-.39-2.753h4a9.427,9.427,0,0,0-.39,2.753,9.694,9.694,0,0,0,.339,2.564Zm15.415,7.742c-7.75,0-13.82-4.545-13.82-10.348s6.07-10.347,13.82-10.347,13.82,4.545,13.82,10.347S75.257,341.614,67.508,341.614Zm17.617-7.742h-2.2a9.694,9.694,0,0,0,.338-2.564,9.427,9.427,0,0,0-.39-2.753h2.254a2.659,2.659,0,1,1,0,5.318Z" transform="translate(-10.642 -274.242)" fill="#284268"/>
      <path id="Path_4562" data-name="Path 4562" d="M73.971,40.957A34.96,34.96,0,0,0,39,75.849v6.984a1.062,1.062,0,0,0,1.046,1H107.9a1.056,1.056,0,0,0,1.04-1V75.849A34.954,34.954,0,0,0,73.971,40.957ZM107,75.849v6.046H40.934V75.849c0-.134.083-.267.085-.4h4.75a.967.967,0,1,0,0-1.934H41.1a32.744,32.744,0,0,1,5.136-15.448,14.1,14.1,0,0,1,8,15.448H52.214a.967.967,0,1,0,0,1.934h54.711C106.926,75.582,107,75.715,107,75.849Zm-.157-2.334H93.708a14.108,14.108,0,0,1,8-15.451,32.743,32.743,0,0,1,5.137,15.451ZM96.221,59.56a15.9,15.9,0,0,0-4.478,13.955H56.194a16.046,16.046,0,0,0-8.85-17.064,32.923,32.923,0,0,1,53.254,0A15.929,15.929,0,0,0,96.221,59.56Z" transform="translate(-34.43 -40.957)" fill="#284268"/>
      <path id="Path_4563" data-name="Path 4563" d="M133.635,97.22c-.593.416-1.179.858-1.74,1.313a.967.967,0,1,0,1.217,1.5c.527-.427,1.077-.842,1.634-1.232a.967.967,0,1,0-1.111-1.583Z" transform="translate(-112.055 -88.006)" fill="#284268"/>
      <path id="Path_4564" data-name="Path 4564" d="M186.562,64.022a31.361,31.361,0,0,0-22.489,2.433.967.967,0,1,0,.89,1.717,29.031,29.031,0,0,1,13.489-3.28,29.4,29.4,0,0,1,7.61,1,.967.967,0,0,0,.5-1.868Z" transform="translate(-138.91 -59.413)" fill="#284268"/>
    </g>
  </g>
</svg>
