<svg xmlns="http://www.w3.org/2000/svg" width="91" height="83.641" viewBox="0 0 91 83.641">
  <g id="volleyball-net" transform="translate(-6.999 -27.272)">
    <path id="Path_4595" data-name="Path 4595" d="M327.644,35.126c-.978-.978-3.8.256-6.3,2.756s-3.733,5.319-2.756,6.3a6.4,6.4,0,1,1,9.052-9.054Z" transform="translate(-253.122 -4.887)" fill="#e87187"/>
    <path id="Path_4596" data-name="Path 4596" d="M336.032,43.51a6.4,6.4,0,1,1-9.053,9.054c.978.978,3.8-.256,6.3-2.756S337.012,44.489,336.032,43.51Z" transform="translate(-261.511 -13.271)" fill="#bad79d"/>
    <path id="Path_4597" data-name="Path 4597" d="M334.533,42.011c.979.979-.254,3.8-2.756,6.3s-5.319,3.733-6.3,2.756.256-3.8,2.756-6.3,5.319-3.733,6.3-2.756Z" transform="translate(-260.012 -11.772)" fill="#f3ce7d"/>
    <path id="Path_4598" data-name="Path 4598" d="M40.6,99.945a2.107,2.107,0,0,0-3.6,1.489v62.7h4.2v-62.7A2.1,2.1,0,0,0,40.6,99.945Z" transform="translate(-24.519 -58.89)" fill="#c79a83"/>
    <path id="Path_4599" data-name="Path 4599" d="M455.581,99.945A2.1,2.1,0,0,0,452,101.434v62.7h4.2v-62.7a2.1,2.1,0,0,0-.621-1.489Z" transform="translate(-363.686 -58.89)" fill="#c79a83"/>
    <path id="Path_4600" data-name="Path 4600" d="M22.42,454H16.578A3.613,3.613,0,0,0,13,457.633v.936H25.974v-.936A3.593,3.593,0,0,0,22.42,454Z" transform="translate(-4.904 -348.752)" fill="#6d7486"/>
    <path id="Path_4601" data-name="Path 4601" d="M437.4,454h-5.842A3.593,3.593,0,0,0,428,457.633v.936h12.974v-.936A3.613,3.613,0,0,0,437.4,454Z" transform="translate(-344.07 -348.752)" fill="#6d7486"/>
    <path id="Path_4602" data-name="Path 4602" d="M22.06,454H16.578A3.613,3.613,0,0,0,13,457.633v.936h5.482v-.936A3.613,3.613,0,0,1,22.06,454Z" transform="translate(-4.904 -348.752)" fill="#5c6270"/>
    <path id="Path_4603" data-name="Path 4603" d="M437.035,454h-5.482A3.593,3.593,0,0,0,428,457.633v.936h5.482v-.936A3.593,3.593,0,0,1,437.035,454Z" transform="translate(-344.07 -348.752)" fill="#5c6270"/>
    <g id="Group_13" data-name="Group 13" transform="translate(6.999 27.272)">
      <path id="Path_4604" data-name="Path 4604" d="M312.915,29.464a7.5,7.5,0,1,0,10.6,0A7.5,7.5,0,0,0,312.915,29.464Zm1.551,1.55a5.288,5.288,0,0,1,3.751-1.551,5.349,5.349,0,0,1,.99.093,15.88,15.88,0,0,0-6.2,6.2A5.3,5.3,0,0,1,314.466,31.015Zm0,7.5c-.166-.409.4-2.4,2.752-4.744s4.334-2.918,4.744-2.752c.166.409-.4,2.4-2.752,4.744s-4.334,2.918-4.744,2.753Zm7.5,0a5.3,5.3,0,0,1-4.741,1.459,15.876,15.876,0,0,0,6.2-6.2A5.3,5.3,0,0,1,321.968,38.518Z" transform="translate(-255.22 -27.272)" fill="#284268"/>
      <path id="Path_4605" data-name="Path 4605" d="M93.613,158.185V96.53a3.2,3.2,0,0,0-6.4,0v2.4A182.885,182.885,0,0,1,52.5,102.262,182.861,182.861,0,0,1,17.78,98.924V96.53a3.2,3.2,0,0,0-3.138-3.2,3.267,3.267,0,0,0-3.258,3.282v10a1.1,1.1,0,0,0,2.193,0V96.569a1.034,1.034,0,0,1,.91-1.044,1.007,1.007,0,0,1,1.1,1.005v2.152a1.065,1.065,0,0,0-.294.167,1.132,1.132,0,0,0-.437.848v25.637a1.23,1.23,0,0,0,.731,1.107v31.7h-2.01V113.917a1.1,1.1,0,1,0-2.193,0v44.269A4.682,4.682,0,0,0,7,162.867v.888A1.122,1.122,0,0,0,8.078,164.9H21.11a1.1,1.1,0,0,0,1.055-1.143v-.888a4.6,4.6,0,0,0-4.386-4.682V126.91A185.148,185.148,0,0,0,52.5,130.18h.09a185.289,185.289,0,0,0,34.628-3.241v31.247a4.6,4.6,0,0,0-4.386,4.682v.888a1.1,1.1,0,0,0,1.055,1.142H96.92A1.122,1.122,0,0,0,98,163.756v-.888a4.735,4.735,0,0,0-4.386-4.682Zm-73.608,4.52H9.183a2.578,2.578,0,0,1,2.49-2.376h5.842A2.578,2.578,0,0,1,20.005,162.706Zm2.16-37.2c-1.687-.285-3.289-.591-5.116-.923v-3.414c1.827.324,3.429.625,5.116.9Zm0-5.658c-1.687-.281-3.289-.585-5.116-.913v-4.71c1.827.324,3.429.625,5.116.9Zm0-6.944c-1.687-.281-3.289-.585-5.116-.913v-4.71c1.827.324,3.429.625,5.116.9Zm0-6.944c-1.687-.281-3.289-.585-5.116-.913v-4.014c1.827.327,3.429.629,5.116.909Zm7.309,20.629q-2.564-.327-5.116-.727v-3.444q2.553.389,5.116.71Zm0-5.673q-2.564-.322-5.116-.717v-4.725q2.553.389,5.116.71Zm0-6.944q-2.564-.322-5.116-.717v-4.725q2.553.389,5.116.71Zm0-6.944q-2.564-.322-5.116-.717v-4.018q2.552.393,5.116.715Zm7.309,20.347q-2.562-.223-5.116-.52v-3.469q2.555.287,5.116.5Zm0-5.687q-2.562-.219-5.116-.51v-4.736q2.555.287,5.116.5Zm0-6.944q-2.562-.219-5.116-.51V109.5q2.555.287,5.116.5Zm0-6.944q-2.562-.219-5.116-.51v-4.02q2.555.29,5.116.512Zm7.309,20.062q-2.56-.12-5.116-.311v-3.491q2.556.186,5.116.3Zm0-5.7q-2.56-.117-5.116-.3v-4.746q2.556.186,5.116.3Zm0-6.944q-2.56-.117-5.116-.3v-4.746q2.556.186,5.116.3Zm0-6.944q-2.56-.117-5.116-.3v-4.02q2.556.188,5.116.3ZM51.4,128.057q-2.558-.017-5.116-.1v-3.5q2.558.086,5.116.1Zm0-5.7q-2.558-.016-5.116-.1V117.5q2.558.086,5.116.1Zm0-6.944q-2.558-.016-5.116-.1v-4.75q2.558.086,5.116.1Zm0-6.944q-2.558-.016-5.116-.1v-4.019q2.558.087,5.116.1ZM89.41,126.52a1.09,1.09,0,0,0,.731-1V99.7a1.132,1.132,0,0,0-.437-.848,1.081,1.081,0,0,0-.294-.169V96.53a1.005,1.005,0,0,1,2.01,0v61.608H89.41Zm-6.578-24.577c1.687-.281,3.289-.582,5.116-.909v4.019c-1.827.327-3.429.631-5.116.912Zm0,6.245c1.687-.277,3.289-.579,5.116-.9V112c-1.827.327-3.429.631-5.116.912Zm0,6.944c1.687-.277,3.289-.579,5.116-.9v4.71c-1.827.327-3.429.631-5.116.912Zm-24.12,12.828q-2.558.086-5.116.1v-3.51q2.558-.015,5.116-.1Zm0-5.7q-2.558.087-5.116.1v-4.751q2.558-.015,5.116-.1Zm0-6.944q-2.558.087-5.116.1v-4.751q2.558-.015,5.116-.1Zm0-6.944q-2.558.087-5.116.1v-4.02q2.558-.015,5.116-.1Zm7.309,19.2q-2.556.189-5.116.3v-3.508q2.559-.116,5.116-.3Zm0-5.7q-2.556.188-5.116.3v-4.749q2.559-.115,5.116-.3Zm0-6.944q-2.556.188-5.116.3v-4.749q2.559-.115,5.116-.3Zm0-6.944q-2.556.188-5.116.3v-4.02q2.559-.117,5.116-.3Zm7.309,18.9q-2.555.292-5.116.515v-3.5q2.562-.216,5.116-.5Zm0-5.7q-2.555.29-5.116.509v-4.744q2.562-.216,5.116-.5Zm0-6.944q-2.555.29-5.116.509V110q2.562-.216,5.116-.5Zm0-6.944q-2.555.29-5.116.509v-4.02q2.562-.219,5.116-.512Zm7.309,18.6q-2.552.4-5.116.721v-3.482q2.564-.318,5.116-.709Zm0-5.689q-2.552.393-5.116.717v-4.733q2.564-.318,5.116-.709Zm0-6.944q-2.552.393-5.116.717v-4.733q2.564-.318,5.116-.709Zm0-6.944q-2.552.393-5.116.717v-4.024q2.564-.322,5.116-.715Zm2.193,19.221v-3.462c1.687-.277,3.289-.579,5.116-.9v3.446c-1.827.331-3.429.635-5.116.918Zm2.16,37.169a2.578,2.578,0,0,1,2.49-2.376h5.842a2.578,2.578,0,0,1,2.49,2.376Z" transform="translate(-6.999 -81.258)" fill="#284268"/>
      <path id="Path_4606" data-name="Path 4606" d="M81.1,406.41a1.1,1.1,0,0,0-1.1,1.1v3.47a1.1,1.1,0,0,0,2.193,0v-3.47A1.1,1.1,0,0,0,81.1,406.41Z" transform="translate(-66.66 -337.13)" fill="#284268"/>
      <path id="Path_4607" data-name="Path 4607" d="M81.1,332.673a1.1,1.1,0,0,0-1.1,1.1V343.2a1.1,1.1,0,0,0,2.193,0v-9.431A1.1,1.1,0,0,0,81.1,332.673Z" transform="translate(-66.66 -276.867)" fill="#284268"/>
      <path id="Path_4608" data-name="Path 4608" d="M81.1,305.48a1.1,1.1,0,0,0-1.1,1.1v.878a1.1,1.1,0,0,0,2.193,0v-.878A1.1,1.1,0,0,0,81.1,305.48Z" transform="translate(-66.66 -254.643)" fill="#284268"/>
    </g>
  </g>
</svg>
